<?xml version="1.0" encoding="iso-8859-1"?>
<!-- Generator: Adobe Illustrator 16.0.0, SVG Export Plug-In . SVG Version: 6.00 Build 0)  -->
<!DOCTYPE svg PUBLIC "-//W3C//DTD SVG 1.1//EN" "http://www.w3.org/Graphics/SVG/1.1/DTD/svg11.dtd">
<svg version="1.1" id="Capa_1" xmlns="http://www.w3.org/2000/svg" xmlns:xlink="http://www.w3.org/1999/xlink" x="0px" y="0px"
	 width="263.312px" height="263.312px" viewBox="0 0 263.312 263.312" style="enable-background:new 0 0 263.312 263.312;"
	 xml:space="preserve">
<g>
	<g>
		<path d="M51.461,37.9c0,1.618,1.284,3.012,3.187,3.77v12.948c0,0.875,0.71,1.592,1.59,1.592c0.88,0,1.598-0.717,1.598-1.592
			V42.276h40.006v4.166c-1.825-0.375-3.707-0.583-5.636-0.583c-0.606,0-1.193,0.055-1.787,0.091
			c0.197-0.057,0.324-0.091,0.324-0.091c-11.54-2.651-26.667,2.651-26.667,2.651c-1.983,6.237,0,25.479,0,25.479
			c0,7.227,2.762,13.808,7.265,18.802c-0.153,1.497-0.233,3.017-0.233,4.549c0,19.798,12.938,36.55,30.823,42.303
			c0.168-7.55-0.233-24.747-6.447-37.736c8.345-0.976,15.594-5.605,20.073-12.259c4.249,6.31,10.982,10.763,18.781,12.052
			c-6.421,13.24-6.724,30.976-6.527,38.347c18.592-5.323,32.205-22.408,32.205-42.707c0-1.538-0.083-3.052-0.232-4.549
			c4.499-4.989,7.26-11.575,7.26-18.802c0-1.501-0.146-2.964-0.373-4.401c0.455-6.061,0.999-16.728-0.378-21.077
			c0,0-15.126-5.303-26.668-2.651c0,0,0.088,0.028,0.161,0.044c-0.296-0.01-0.575-0.044-0.87-0.044
			c-0.829,0-1.645,0.049-2.454,0.117v-3.7h32.834c3.521,0,6.364-1.958,6.364-4.381c0-2.418-2.843-4.378-6.364-4.378H57.835
			C54.314,33.528,51.461,35.482,51.461,37.9z M137.439,50.642c12.908,0,23.358,10.457,23.358,23.358s-10.455,23.351-23.358,23.351
			c-9.989,0-18.483-6.283-21.818-15.1c-3.34,8.816-11.84,15.1-21.831,15.1c-12.901,0-23.351-10.455-23.351-23.351
			c0-12.901,10.457-23.358,23.351-23.358c9.991,0,18.491,6.286,21.831,15.102C118.956,56.92,127.45,50.642,137.439,50.642z
			 M127.057,48.516c-2.556,1.194-4.914,2.742-6.978,4.608c-1.484-0.147-2.996-0.228-4.523-0.228c-1.528,0-3.037,0.08-4.528,0.228
			c-2.066-1.872-4.428-3.415-6.978-4.608H127.057z"/>
		<circle cx="92.2" cy="73.994" r="9.56"/>
		<path d="M138.91,64.434c5.281,0,9.559,4.282,9.559,9.562c0,5.279-4.277,9.559-9.559,9.559c-5.282,0-9.562-4.28-9.562-9.559
			C129.348,68.716,133.627,64.434,138.91,64.434z"/>
		<path d="M89.008,141.808c-3.516,0-6.369,2.49-6.369,5.566s2.853,5.571,6.369,5.571h3.457c3.516,0,6.369-2.495,6.369-5.571
			s-2.853-5.566-6.369-5.566H89.008z"/>
		<path d="M135.711,141.808c-3.516,0-6.364,2.49-6.364,5.566s2.848,5.571,6.364,5.571h3.457c3.521,0,6.369-2.495,6.369-5.571
			s-2.849-5.566-6.369-5.566H135.711z"/>
		<path d="M248.55,154.944c-1.273-1.46-3.251-2.103-5.151-1.688l-5.691,1.273l-83.983-11.051c0.067,0.523,0.176,1.031,0.176,1.574
			c0,7.457-6.426,13.521-14.322,13.521h-3.459c-3.371,0-6.479-1.103-8.922-2.957c-4.223-3.185-5.308-9.9-5.559-12.422l-0.451-4.562
			l-12.676-0.357l-1.548,8.9c-1.093,6.441-6.97,11.397-14.095,11.397h-3.456c-7.896,0-14.323-6.063-14.323-13.521
			c0.005-0.051-59.111,11.237-59.111,11.237l-5.333-1.021c-2.017-0.404-4.062,0.414-5.266,2.061
			c-14.587,19.797,5.025,44.387,5.875,45.428c0.774,0.948,1.841,1.601,3.035,1.849l120.331,25.078
			c0.355,0.072,0.715,0.108,1.067,0.108c0.618-0.047,0.963-0.067,1.297-0.15l122.312-30.509c2.843-0.715,4.567-3.589,3.857-6.432
			c-0.714-2.838-3.599-4.577-6.431-3.857l-1.477,0.367c-10.625-14.54-5.924-28.35-5.722-28.914
			C250.208,158.466,249.835,156.415,248.55,154.944z M18.417,194.63c-3.05-4.309-11.237-17.497-6.152-28.252l15.128,2.904
			c-0.567,6.359-0.386,17.337,5.101,28.278L18.417,194.63z M47.215,200.631c-0.029-0.031-0.034-0.067-0.06-0.099
			c-8.915-10.092-9.67-22.447-9.264-29.235l50.512,9.704c-0.728,5.551-1.279,17.232,4.205,29.09L47.215,200.631z M106.882,213.063
			c-8.854-11.061-8.655-24.306-8.023-30.054l24.71,4.743c-2.503,7.57-3.622,18.279,0.961,28.992L106.882,213.063z M137.742,218.517
			c-9.188-12.495-5.142-25.316-3.037-30.101l103.148-23.054c-0.549,6.67,0.29,16.399,6.473,26.564L137.742,218.517z"/>
	</g>
</g>
<g>
</g>
<g>
</g>
<g>
</g>
<g>
</g>
<g>
</g>
<g>
</g>
<g>
</g>
<g>
</g>
<g>
</g>
<g>
</g>
<g>
</g>
<g>
</g>
<g>
</g>
<g>
</g>
<g>
</g>
</svg>
